<?xml version="1.0" encoding="UTF-8" standalone="no"?>
<!-- Created with Inkscape (http://www.inkscape.org/) -->

<svg
   xmlns:dc="http://purl.org/dc/elements/1.1/"
   xmlns:cc="http://creativecommons.org/ns#"
   xmlns:rdf="http://www.w3.org/1999/02/22-rdf-syntax-ns#"
   xmlns:svg="http://www.w3.org/2000/svg"
   xmlns="http://www.w3.org/2000/svg"
   xmlns:inkscape="http://www.inkscape.org/namespaces/inkscape"
   version="1.1"
   width="738.69647"
   height="422.1933"
   id="svg2">
  <defs
     id="defs4">
    <marker
       refX="0"
       refY="0"
       orient="auto"
       id="Arrow2Send"
       style="overflow:visible">
      <path
         d="M 8.7185878,4.0337352 -2.2072895,0.01601326 8.7185884,-4.0017078 c -1.7454984,2.3720609 -1.7354408,5.6174519 -6e-7,8.035443 z"
         transform="matrix(-0.3,0,0,-0.3,0.69,0)"
         id="path4106"
         style="fill-rule:evenodd;stroke-width:0.625;stroke-linejoin:round" />
    </marker>
    <marker
       refX="0"
       refY="0"
       orient="auto"
       id="Tail"
       style="overflow:visible">
      <g
         transform="scale(-1.2,-1.2)"
         id="g4109">
        <path
           d="M -3.8048674,-3.9585227 0.54352094,0"
           id="path4111"
           style="fill:none;stroke:#000000;stroke-width:0.80000001;stroke-linecap:round" />
        <path
           d="M -1.2866832,-3.9585227 3.0617053,0"
           id="path4113"
           style="fill:none;stroke:#000000;stroke-width:0.80000001;stroke-linecap:round" />
        <path
           d="M 1.3053582,-3.9585227 5.6537466,0"
           id="path4115"
           style="fill:none;stroke:#000000;stroke-width:0.80000001;stroke-linecap:round" />
        <path
           d="M -3.8048674,4.1775838 0.54352094,0.21974226"
           id="path4117"
           style="fill:none;stroke:#000000;stroke-width:0.80000001;stroke-linecap:round" />
        <path
           d="M -1.2866832,4.1775838 3.0617053,0.21974226"
           id="path4119"
           style="fill:none;stroke:#000000;stroke-width:0.80000001;stroke-linecap:round" />
        <path
           d="M 1.3053582,4.1775838 5.6537466,0.21974226"
           id="path4121"
           style="fill:none;stroke:#000000;stroke-width:0.80000001;stroke-linecap:round" />
      </g>
    </marker>
    <marker
       refX="0"
       refY="0"
       orient="auto"
       id="Arrow1Mstart"
       style="overflow:visible">
      <path
         d="M 0,0 5,-5 -12.5,0 5,5 0,0 z"
         transform="matrix(0.4,0,0,0.4,4,0)"
         id="path4079"
         style="fill-rule:evenodd;stroke:#000000;stroke-width:1pt" />
    </marker>
    <inkscape:path-effect
       effect="spiro"
       id="path-effect7615" />
    <marker
       refX="0"
       refY="0"
       orient="auto"
       id="Arrow1Mend"
       style="overflow:visible">
      <path
         d="M 0,0 5,-5 -12.5,0 5,5 0,0 z"
         transform="matrix(-0.4,0,0,-0.4,-4,0)"
         id="path4082"
         style="fill-rule:evenodd;stroke:#000000;stroke-width:1pt" />
    </marker>
    <marker
       refX="0"
       refY="0"
       orient="auto"
       id="Arrow1Mend-9"
       style="overflow:visible">
      <path
         d="M 0,0 5,-5 -12.5,0 5,5 0,0 z"
         transform="matrix(-0.4,0,0,-0.4,-4,0)"
         id="path4082-4"
         style="fill-rule:evenodd;stroke:#000000;stroke-width:1pt" />
    </marker>
    <marker
       refX="0"
       refY="0"
       orient="auto"
       id="Arrow1Mend-0"
       style="overflow:visible">
      <path
         d="M 0,0 5,-5 -12.5,0 5,5 0,0 z"
         transform="matrix(-0.4,0,0,-0.4,-4,0)"
         id="path4082-3"
         style="fill-rule:evenodd;stroke:#000000;stroke-width:1pt" />
    </marker>
    <marker
       refX="0"
       refY="0"
       orient="auto"
       id="Arrow1Mend-2"
       style="overflow:visible">
      <path
         d="M 0,0 5,-5 -12.5,0 5,5 0,0 z"
         transform="matrix(-0.4,0,0,-0.4,-4,0)"
         id="path4082-45"
         style="fill-rule:evenodd;stroke:#000000;stroke-width:1pt" />
    </marker>
    <marker
       refX="0"
       refY="0"
       orient="auto"
       id="Arrow1Mend-8"
       style="overflow:visible">
      <path
         d="M 0,0 5,-5 -12.5,0 5,5 0,0 z"
         transform="matrix(-0.4,0,0,-0.4,-4,0)"
         id="path4082-1"
         style="fill-rule:evenodd;stroke:#000000;stroke-width:1pt" />
    </marker>
    <marker
       refX="0"
       refY="0"
       orient="auto"
       id="Arrow1Mend-1"
       style="overflow:visible">
      <path
         d="M 0,0 5,-5 -12.5,0 5,5 0,0 z"
         transform="matrix(-0.4,0,0,-0.4,-4,0)"
         id="path4082-49"
         style="fill-rule:evenodd;stroke:#000000;stroke-width:1pt" />
    </marker>
    <marker
       refX="0"
       refY="0"
       orient="auto"
       id="Arrow1Mend-24"
       style="overflow:visible">
      <path
         d="M 0,0 5,-5 -12.5,0 5,5 0,0 z"
         transform="matrix(-0.4,0,0,-0.4,-4,0)"
         id="path4082-5"
         style="fill-rule:evenodd;stroke:#000000;stroke-width:1pt" />
    </marker>
    <marker
       refX="0"
       refY="0"
       orient="auto"
       id="Arrow1Mend-99"
       style="overflow:visible">
      <path
         d="M 0,0 5,-5 -12.5,0 5,5 0,0 z"
         transform="matrix(-0.4,0,0,-0.4,-4,0)"
         id="path4082-8"
         style="fill-rule:evenodd;stroke:#000000;stroke-width:1pt" />
    </marker>
    <marker
       refX="0"
       refY="0"
       orient="auto"
       id="Arrow1Mend-86"
       style="overflow:visible">
      <path
         d="M 0,0 5,-5 -12.5,0 5,5 0,0 z"
         transform="matrix(-0.4,0,0,-0.4,-4,0)"
         id="path4082-9"
         style="fill-rule:evenodd;stroke:#000000;stroke-width:1pt" />
    </marker>
    <marker
       refX="0"
       refY="0"
       orient="auto"
       id="Arrow1Mend-6"
       style="overflow:visible">
      <path
         d="M 0,0 5,-5 -12.5,0 5,5 0,0 z"
         transform="matrix(-0.4,0,0,-0.4,-4,0)"
         id="path4082-6"
         style="fill-rule:evenodd;stroke:#000000;stroke-width:1pt" />
    </marker>
    <marker
       refX="0"
       refY="0"
       orient="auto"
       id="Arrow1Mend-3"
       style="overflow:visible">
      <path
         d="M 0,0 5,-5 -12.5,0 5,5 0,0 z"
         transform="matrix(-0.4,0,0,-0.4,-4,0)"
         id="path4082-82"
         style="fill-rule:evenodd;stroke:#000000;stroke-width:1pt" />
    </marker>
    <marker
       refX="0"
       refY="0"
       orient="auto"
       id="Arrow1Mend-27"
       style="overflow:visible">
      <path
         d="M 0,0 5,-5 -12.5,0 5,5 0,0 z"
         transform="matrix(-0.4,0,0,-0.4,-4,0)"
         id="path4082-57"
         style="fill-rule:evenodd;stroke:#000000;stroke-width:1pt" />
    </marker>
    <marker
       refX="0"
       refY="0"
       orient="auto"
       id="Arrow1Mend-278"
       style="overflow:visible">
      <path
         d="M 0,0 5,-5 -12.5,0 5,5 0,0 z"
         transform="matrix(-0.4,0,0,-0.4,-4,0)"
         id="path4082-0"
         style="fill-rule:evenodd;stroke:#000000;stroke-width:1pt" />
    </marker>
    <marker
       refX="0"
       refY="0"
       orient="auto"
       id="Arrow1Mend-08"
       style="overflow:visible">
      <path
         d="M 0,0 5,-5 -12.5,0 5,5 0,0 z"
         transform="matrix(-0.4,0,0,-0.4,-4,0)"
         id="path4082-92"
         style="fill-rule:evenodd;stroke:#000000;stroke-width:1pt" />
    </marker>
    <marker
       refX="0"
       refY="0"
       orient="auto"
       id="Arrow1Mend-20"
       style="overflow:visible">
      <path
         d="M 0,0 5,-5 -12.5,0 5,5 0,0 z"
         transform="matrix(-0.4,0,0,-0.4,-4,0)"
         id="path4082-55"
         style="fill-rule:evenodd;stroke:#000000;stroke-width:1pt" />
    </marker>
    <marker
       refX="0"
       refY="0"
       orient="auto"
       id="marker5131"
       style="overflow:visible">
      <path
         d="M 0,0 5,-5 -12.5,0 5,5 0,0 z"
         transform="matrix(-0.4,0,0,-0.4,-4,0)"
         id="path5133"
         style="fill-rule:evenodd;stroke:#000000;stroke-width:1pt" />
    </marker>
    <marker
       refX="0"
       refY="0"
       orient="auto"
       id="Arrow1Mend-7"
       style="overflow:visible">
      <path
         d="M 0,0 5,-5 -12.5,0 5,5 0,0 z"
         transform="matrix(-0.4,0,0,-0.4,-4,0)"
         id="path4082-87"
         style="fill-rule:evenodd;stroke:#000000;stroke-width:1pt" />
    </marker>
    <marker
       refX="0"
       refY="0"
       orient="auto"
       id="Arrow1Mend-16"
       style="overflow:visible">
      <path
         d="M 0,0 5,-5 -12.5,0 5,5 0,0 z"
         transform="matrix(-0.4,0,0,-0.4,-4,0)"
         id="path4082-09"
         style="fill-rule:evenodd;stroke:#000000;stroke-width:1pt" />
    </marker>
    <marker
       refX="0"
       refY="0"
       orient="auto"
       id="marker5190"
       style="overflow:visible">
      <path
         d="M 0,0 5,-5 -12.5,0 5,5 0,0 z"
         transform="matrix(-0.4,0,0,-0.4,-4,0)"
         id="path5192"
         style="fill-rule:evenodd;stroke:#000000;stroke-width:1pt" />
    </marker>
    <marker
       refX="0"
       refY="0"
       orient="auto"
       id="Arrow1Mend-90"
       style="overflow:visible">
      <path
         d="M 0,0 5,-5 -12.5,0 5,5 0,0 z"
         transform="matrix(-0.4,0,0,-0.4,-4,0)"
         id="path4082-00"
         style="fill-rule:evenodd;stroke:#000000;stroke-width:1pt" />
    </marker>
    <marker
       refX="0"
       refY="0"
       orient="auto"
       id="Arrow1Mend-25"
       style="overflow:visible">
      <path
         d="M 0,0 5,-5 -12.5,0 5,5 0,0 z"
         transform="matrix(-0.4,0,0,-0.4,-4,0)"
         id="path4082-52"
         style="fill-rule:evenodd;stroke:#000000;stroke-width:1pt" />
    </marker>
    <marker
       refX="0"
       refY="0"
       orient="auto"
       id="Arrow1Mend-68"
       style="overflow:visible">
      <path
         d="M 0,0 5,-5 -12.5,0 5,5 0,0 z"
         transform="matrix(-0.4,0,0,-0.4,-4,0)"
         id="path4082-98"
         style="fill-rule:evenodd;stroke:#000000;stroke-width:1pt" />
    </marker>
    <marker
       refX="0"
       refY="0"
       orient="auto"
       id="Arrow1Mend-5"
       style="overflow:visible">
      <path
         d="M 0,0 5,-5 -12.5,0 5,5 0,0 z"
         transform="matrix(-0.4,0,0,-0.4,-4,0)"
         id="path4082-51"
         style="fill-rule:evenodd;stroke:#000000;stroke-width:1pt" />
    </marker>
    <marker
       refX="0"
       refY="0"
       orient="auto"
       id="Arrow1Mend-58"
       style="overflow:visible">
      <path
         d="M 0,0 5,-5 -12.5,0 5,5 0,0 z"
         transform="matrix(-0.4,0,0,-0.4,-4,0)"
         id="path4082-40"
         style="fill-rule:evenodd;stroke:#000000;stroke-width:1pt" />
    </marker>
    <marker
       refX="0"
       refY="0"
       orient="auto"
       id="Arrow1Mend-14"
       style="overflow:visible">
      <path
         d="M 0,0 5,-5 -12.5,0 5,5 0,0 z"
         transform="matrix(-0.4,0,0,-0.4,-4,0)"
         id="path4082-99"
         style="fill-rule:evenodd;stroke:#000000;stroke-width:1pt" />
    </marker>
    <marker
       refX="0"
       refY="0"
       orient="auto"
       id="Arrow1Mend-30"
       style="overflow:visible">
      <path
         d="M 0,0 5,-5 -12.5,0 5,5 0,0 z"
         transform="matrix(-0.4,0,0,-0.4,-4,0)"
         id="path4082-35"
         style="fill-rule:evenodd;stroke:#000000;stroke-width:1pt" />
    </marker>
    <marker
       refX="0"
       refY="0"
       orient="auto"
       id="Arrow1Mend-76"
       style="overflow:visible">
      <path
         d="M 0,0 5,-5 -12.5,0 5,5 0,0 z"
         transform="matrix(-0.4,0,0,-0.4,-4,0)"
         id="path4082-7"
         style="fill-rule:evenodd;stroke:#000000;stroke-width:1pt" />
    </marker>
    <marker
       refX="0"
       refY="0"
       orient="auto"
       id="Arrow1Mend-36"
       style="overflow:visible">
      <path
         d="M 0,0 5,-5 -12.5,0 5,5 0,0 z"
         transform="matrix(-0.4,0,0,-0.4,-4,0)"
         id="path4082-44"
         style="fill-rule:evenodd;stroke:#000000;stroke-width:1pt" />
    </marker>
    <marker
       refX="0"
       refY="0"
       orient="auto"
       id="Arrow1Mend-95"
       style="overflow:visible">
      <path
         d="M 0,0 5,-5 -12.5,0 5,5 0,0 z"
         transform="matrix(-0.4,0,0,-0.4,-4,0)"
         id="path4082-574"
         style="fill-rule:evenodd;stroke:#000000;stroke-width:1pt" />
    </marker>
    <marker
       refX="0"
       refY="0"
       orient="auto"
       id="Arrow1Mend-34"
       style="overflow:visible">
      <path
         d="M 0,0 5,-5 -12.5,0 5,5 0,0 z"
         transform="matrix(-0.4,0,0,-0.4,-4,0)"
         id="path4082-08"
         style="fill-rule:evenodd;stroke:#000000;stroke-width:1pt" />
    </marker>
    <marker
       refX="0"
       refY="0"
       orient="auto"
       id="Arrow1Mend-15"
       style="overflow:visible">
      <path
         d="M 0,0 5,-5 -12.5,0 5,5 0,0 z"
         transform="matrix(-0.4,0,0,-0.4,-4,0)"
         id="path4082-2"
         style="fill-rule:evenodd;stroke:#000000;stroke-width:1pt" />
    </marker>
    <marker
       refX="0"
       refY="0"
       orient="auto"
       id="Arrow1Mend-246"
       style="overflow:visible">
      <path
         d="M 0,0 5,-5 -12.5,0 5,5 0,0 z"
         transform="matrix(-0.4,0,0,-0.4,-4,0)"
         id="path4082-66"
         style="fill-rule:evenodd;stroke:#000000;stroke-width:1pt" />
    </marker>
  </defs>
  <metadata
     id="metadata7">
    <rdf:RDF>
      <cc:Work
         rdf:about="">
        <dc:format>image/svg+xml</dc:format>
        <dc:type
           rdf:resource="http://purl.org/dc/dcmitype/StillImage" />
        <dc:title></dc:title>
      </cc:Work>
    </rdf:RDF>
  </metadata>
  <g
     transform="translate(252.16316,-272.66544)"
     id="layer1">
    <rect
       width="107.58125"
       height="24.243662"
       rx="5"
       ry="5"
       x="22.454477"
       y="272.66544"
       id="rect4533"
       style="color:#000000;fill:#abffe7;fill-opacity:1;fill-rule:nonzero;stroke:none;stroke-width:3;marker:none;visibility:visible;display:inline;overflow:visible;enable-background:accumulate" />
    <rect
       width="131.86697"
       height="23.886518"
       rx="5"
       ry="5"
       x="10.311617"
       y="357.95645"
       id="rect4533-6"
       style="color:#000000;fill:#abffb3;fill-opacity:1;fill-rule:nonzero;stroke:none;stroke-width:3;marker:none;visibility:visible;display:inline;overflow:visible;enable-background:accumulate" />
    <rect
       width="158.29555"
       height="23.886518"
       rx="5"
       ry="5"
       x="-236.44887"
       y="357.95645"
       id="rect4533-6-8"
       style="color:#000000;fill:#aab9ff;fill-opacity:1;fill-rule:nonzero;stroke:none;stroke-width:3;marker:none;visibility:visible;display:inline;overflow:visible;enable-background:accumulate" />
    <rect
       width="215.79555"
       height="38.529377"
       rx="5"
       ry="5"
       x="248.23775"
       y="433.24524"
       id="rect4533-6-8-8-2"
       style="color:#000000;fill:#feffaa;fill-opacity:1;fill-rule:nonzero;stroke:none;stroke-width:3;marker:none;visibility:visible;display:inline;overflow:visible;enable-background:accumulate" />
    <rect
       width="115.79556"
       height="23.886518"
       rx="5"
       ry="5"
       x="18.347319"
       y="440.56665"
       id="rect4533-6-8-8-7"
       style="color:#000000;fill:#deffab;fill-opacity:1;fill-rule:nonzero;stroke:none;stroke-width:3;marker:none;visibility:visible;display:inline;overflow:visible;enable-background:accumulate" />
    <rect
       width="189.72414"
       height="23.886518"
       rx="5"
       ry="5"
       x="-252.16316"
       y="440.56665"
       id="rect4533-6-8-8-7-1"
       style="color:#000000;fill:#aae2ff;fill-opacity:1;fill-rule:nonzero;stroke:none;stroke-width:3;marker:none;visibility:visible;display:inline;overflow:visible;enable-background:accumulate" />
    <rect
       width="260.79556"
       height="23.886518"
       rx="5"
       ry="5"
       x="225.73775"
       y="526.23657"
       id="rect4533-6-8-8-7-1-2"
       style="color:#000000;fill:#ffc6aa;fill-opacity:1;fill-rule:nonzero;stroke:none;stroke-width:3;marker:none;visibility:visible;display:inline;overflow:visible;enable-background:accumulate" />
    <rect
       width="200.43843"
       height="65.315086"
       rx="5"
       ry="5"
       x="255.91631"
       y="621.68646"
       id="rect4533-6-8-8-7-1-2-6"
       style="color:#000000;fill:#ffaaca;fill-opacity:1;fill-rule:nonzero;stroke:none;stroke-width:3;marker:none;visibility:visible;display:inline;overflow:visible;enable-background:accumulate" />
    <rect
       width="166.15271"
       height="23.886518"
       rx="5"
       ry="5"
       x="-6.8312554"
       y="526.23657"
       id="rect4533-6-8-8-7-1-4"
       style="color:#000000;fill:#ffebab;fill-opacity:1;fill-rule:nonzero;stroke:none;stroke-width:3;marker:none;visibility:visible;display:inline;overflow:visible;enable-background:accumulate" />
    <rect
       width="253.29558"
       height="81.029373"
       rx="5"
       ry="5"
       x="-50.402691"
       y="613.82935"
       id="rect4533-6-8-8-7-1-2-6-0"
       style="color:#000000;fill:#ffaaaa;fill-opacity:1;fill-rule:nonzero;stroke:none;stroke-width:3;marker:none;visibility:visible;display:inline;overflow:visible;enable-background:accumulate" />
    <path
       d="m 76.225907,299.06123 0,55.25267"
       id="path5251"
       style="color:#000000;fill:none;stroke:#000000;stroke-width:1px;stroke-linecap:butt;stroke-linejoin:miter;stroke-miterlimit:4;stroke-opacity:1;stroke-dasharray:none;stroke-dashoffset:0;marker:none;marker-end:url(#Arrow1Mend);visibility:visible;display:inline;overflow:visible;enable-background:accumulate" />
    <path
       d="m 76.225907,384.9898 0,51.37671"
       id="path5251-3"
       style="color:#000000;fill:none;stroke:#000000;stroke-width:1px;stroke-linecap:butt;stroke-linejoin:miter;stroke-miterlimit:4;stroke-opacity:1;stroke-dasharray:none;stroke-dashoffset:0;marker:none;marker-end:url(#Arrow1Mend);visibility:visible;display:inline;overflow:visible;enable-background:accumulate" />
    <path
       d="m -157.05981,384.9898 0,51.37671"
       id="path5251-3-5"
       style="color:#000000;fill:none;stroke:#000000;stroke-width:1px;stroke-linecap:butt;stroke-linejoin:miter;stroke-miterlimit:4;stroke-opacity:1;stroke-dasharray:none;stroke-dashoffset:0;marker:none;marker-end:url(#Arrow1Mend);visibility:visible;display:inline;overflow:visible;enable-background:accumulate" />
    <path
       d="m 15.865934,452.73727 -74.027032,0"
       id="path5251-3-5-5"
       style="color:#000000;fill:none;stroke:#000000;stroke-width:1px;stroke-linecap:butt;stroke-linejoin:miter;stroke-miterlimit:4;stroke-opacity:1;stroke-dasharray:none;stroke-dashoffset:0;marker:none;marker-end:url(#Arrow1Mend);visibility:visible;display:inline;overflow:visible;enable-background:accumulate" />
    <path
       d="m 246.31708,452.71933 -109.20633,0"
       id="path5251-3-5-5-0"
       style="color:#000000;fill:none;stroke:#000000;stroke-width:1px;stroke-linecap:butt;stroke-linejoin:miter;stroke-miterlimit:4;stroke-opacity:1;stroke-dasharray:none;stroke-dashoffset:0;marker:none;marker-end:url(#Arrow1Mend);visibility:visible;display:inline;overflow:visible;enable-background:accumulate" />
    <path
       d="m 76.225907,466.98979 0,55.89184"
       id="path5251-3-0"
       style="color:#000000;fill:none;stroke:#000000;stroke-width:1px;stroke-linecap:butt;stroke-linejoin:miter;stroke-miterlimit:4;stroke-opacity:1;stroke-dasharray:none;stroke-dashoffset:0;marker:none;marker-end:url(#Arrow1Mend);visibility:visible;display:inline;overflow:visible;enable-background:accumulate" />
    <path
       d="m 76.225907,551.98983 0,59.80106"
       id="path5251-3-0-1"
       style="color:#000000;fill:none;stroke:#000000;stroke-width:1px;stroke-linecap:butt;stroke-linejoin:miter;stroke-miterlimit:4;stroke-opacity:1;stroke-dasharray:none;stroke-dashoffset:0;marker:none;marker-end:url(#Arrow1Mend);visibility:visible;display:inline;overflow:visible;enable-background:accumulate" />
    <path
       d="m 356.22591,473.16057 0,49.80423"
       id="path5251-3-0-7"
       style="color:#000000;fill:none;stroke:#000000;stroke-width:1px;stroke-linecap:butt;stroke-linejoin:miter;stroke-miterlimit:4;stroke-opacity:1;stroke-dasharray:none;stroke-dashoffset:0;marker:none;marker-end:url(#Arrow1Mend);visibility:visible;display:inline;overflow:visible;enable-background:accumulate" />
    <path
       d="m 356.22591,552.1504 0,66.72889"
       id="path5251-3-0-7-8"
       style="color:#000000;fill:none;stroke:#000000;stroke-width:1px;stroke-linecap:butt;stroke-linejoin:miter;stroke-miterlimit:4;stroke-opacity:1;stroke-dasharray:none;stroke-dashoffset:0;marker:none;marker-end:url(#Arrow1Mend);visibility:visible;display:inline;overflow:visible;enable-background:accumulate" />
    <path
       d="m 224.53136,538.71933 -62.7792,0"
       id="path5251-3-5-5-0-3"
       style="color:#000000;fill:none;stroke:#000000;stroke-width:1px;stroke-linecap:butt;stroke-linejoin:miter;stroke-miterlimit:4;stroke-opacity:1;stroke-dasharray:none;stroke-dashoffset:0;marker:none;marker-end:url(#Arrow1Mend);visibility:visible;display:inline;overflow:visible;enable-background:accumulate" />
    <path
       d="m 253.76459,654.86219 -48.30921,0"
       id="path5251-3-5-5-0-3-2"
       style="color:#000000;fill:none;stroke:#000000;stroke-width:0.99999994px;stroke-linecap:butt;stroke-linejoin:miter;stroke-miterlimit:4;stroke-opacity:1;stroke-dasharray:none;stroke-dashoffset:0;marker:none;marker-end:url(#Arrow1Mend);visibility:visible;display:inline;overflow:visible;enable-background:accumulate" />
  </g>
  <g
     transform="translate(252.16316,-272.66544)"
     id="layer2">
    <text
       x="28.041119"
       y="289.06561"
       id="text2985"
       xml:space="preserve"
       style="font-size:12px;font-style:normal;font-variant:normal;font-weight:normal;font-stretch:normal;line-height:125%;letter-spacing:0px;word-spacing:0px;fill:#000000;fill-opacity:1;stroke:none;font-family:Envy Code R;-inkscape-font-specification:Envy Code R"><tspan
         x="28.041119"
         y="289.06561"
         id="tspan2995"
         style="font-style:normal;font-variant:normal;font-weight:normal;font-stretch:normal;font-family:Envy Code R;-inkscape-font-specification:Envy Code R"><tspan
   id="tspan3009"
   style="font-weight:bold">Eq</tspan>: (==) | (/=)</tspan></text>
    <text
       x="15.352244"
       y="373.64969"
       id="text3001"
       xml:space="preserve"
       style="font-size:12px;font-style:normal;font-variant:normal;font-weight:normal;font-stretch:normal;line-height:125%;letter-spacing:0px;word-spacing:0px;fill:#000000;fill-opacity:1;stroke:none;font-family:Envy Code R;-inkscape-font-specification:Envy Code R"><tspan
         x="15.352244"
         y="373.64969"
         id="tspan3003"><tspan
   id="tspan3011"
   style="font-weight:bold">Ord</tspan>: compare <tspan
   id="tspan5883"
   style="fill:#666666">|</tspan> (&lt;=)</tspan></text>
    <text
       x="-231.40825"
       y="374.54257"
       id="text3005"
       xml:space="preserve"
       style="font-size:12px;font-style:normal;font-variant:normal;font-weight:normal;font-stretch:normal;line-height:125%;letter-spacing:0px;word-spacing:0px;fill:#000000;fill-opacity:1;stroke:none;font-family:Envy Code R;-inkscape-font-specification:Envy Code R"><tspan
         x="-231.40825"
         y="374.54257"
         id="tspan3007"><tspan
   id="tspan3013"
   style="font-weight:bold">Enum</tspan>: toEnum | fromEnum</tspan></text>
    <text
       x="253.88264"
       y="448.8288"
       id="text3049"
       xml:space="preserve"
       style="font-size:12px;font-style:normal;font-variant:normal;font-weight:normal;font-stretch:normal;line-height:125%;letter-spacing:0px;word-spacing:0px;fill:#000000;fill-opacity:1;stroke:none;font-family:Envy Code R;-inkscape-font-specification:Envy Code R"><tspan
         x="253.88264"
         y="448.8288"
         id="tspan3051"><tspan
   id="tspan3053"
   style="font-weight:bold">Num</tspan>: (+), (*), abs, signum,</tspan><tspan
         x="253.88264"
         y="463.8288"
         id="tspan4513"><tspan
   id="tspan5241"
   style="fill:#2a7fff">     fromInteger</tspan>, (negate | (-))</tspan></text>
    <text
       x="25.550762"
       y="457.06885"
       id="text3055"
       xml:space="preserve"
       style="font-size:12px;font-style:normal;font-variant:normal;font-weight:normal;font-stretch:normal;line-height:125%;letter-spacing:0px;word-spacing:0px;fill:#000000;fill-opacity:1;stroke:none;font-family:Envy Code R;-inkscape-font-specification:Envy Code R"><tspan
         x="25.550762"
         y="457.06885"
         id="tspan3057"><tspan
   id="tspan3059"
   style="font-weight:bold">Real</tspan>: <tspan
   id="tspan5249"
   style="fill:#ff4100;fill-opacity:1">toRational</tspan></tspan></text>
    <text
       x="-247.06667"
       y="456.26611"
       id="text3061"
       xml:space="preserve"
       style="font-size:12px;font-style:normal;font-variant:normal;font-weight:normal;font-stretch:normal;line-height:125%;letter-spacing:0px;word-spacing:0px;fill:#000000;fill-opacity:1;stroke:none;font-family:Envy Code R;-inkscape-font-specification:Envy Code R"><tspan
         x="-247.06667"
         y="456.26611"
         id="tspan3063"><tspan
   id="tspan3065"
   style="font-weight:bold">Integral</tspan>: quotRem, <tspan
   id="tspan5239"
   style="fill:#2a7fff">toInteger</tspan></tspan></text>
    <text
       x="232.14555"
       y="541.95959"
       id="text3067"
       xml:space="preserve"
       style="font-size:12px;font-style:normal;font-variant:normal;font-weight:normal;font-stretch:normal;line-height:125%;letter-spacing:0px;word-spacing:0px;fill:#000000;fill-opacity:1;stroke:none;font-family:Envy Code R;-inkscape-font-specification:Envy Code R"><tspan
         x="232.14555"
         y="541.95959"
         id="tspan3069"><tspan
   id="tspan3071"
   style="font-weight:bold">Fractional</tspan>: <tspan
   id="tspan5247"
   style="fill:#ff4100;fill-opacity:1">fromRational</tspan>, (recip | (/))</tspan></text>
    <text
       x="262.07913"
       y="636.58136"
       id="text3073"
       xml:space="preserve"
       style="font-size:12px;font-style:normal;font-variant:normal;font-weight:normal;font-stretch:normal;line-height:125%;letter-spacing:0px;word-spacing:0px;fill:#000000;fill-opacity:1;stroke:none;font-family:Envy Code R;-inkscape-font-specification:Envy Code R"><tspan
         x="262.07913"
         y="636.58136"
         id="tspan3075"><tspan
   id="tspan3077"
   style="font-weight:bold">Floating</tspan>: pi, exp, log, sin,</tspan><tspan
         x="262.07913"
         y="651.58136"
         id="tspan4515">          cos, asin, atan,</tspan><tspan
         x="262.07913"
         y="666.58136"
         id="tspan3105">          acos, sinh, cosh,</tspan><tspan
         x="262.07913"
         y="681.58136"
         id="tspan4517">          asinh, atanh, acosh</tspan></text>
    <text
       x="-0.89777046"
       y="542.96558"
       id="text3079"
       xml:space="preserve"
       style="font-size:12px;font-style:normal;font-variant:normal;font-weight:normal;font-stretch:normal;line-height:125%;letter-spacing:0px;word-spacing:0px;fill:#000000;fill-opacity:1;stroke:none;font-family:Envy Code R;-inkscape-font-specification:Envy Code R"><tspan
         x="-0.89777046"
         y="542.96558"
         id="tspan3081"><tspan
   id="tspan3083"
   style="font-weight:bold">RealFrac</tspan>: properFraction</tspan></text>
    <text
       x="-44.316151"
       y="628.76086"
       id="text3085"
       xml:space="preserve"
       style="font-size:12px;font-style:normal;font-variant:normal;font-weight:normal;font-stretch:normal;line-height:125%;letter-spacing:0px;word-spacing:0px;fill:#000000;fill-opacity:1;stroke:none;font-family:Envy Code R;-inkscape-font-specification:Envy Code R"><tspan
         x="-44.316151"
         y="628.76086"
         id="tspan3097"><tspan
   id="tspan3089"
   style="font-weight:bold">RealFloat</tspan>: floatRadix, floatDigits,</tspan><tspan
         x="-44.316151"
         y="643.76086"
         id="tspan4519">           floatRange, decodeFloat,</tspan><tspan
         x="-44.316151"
         y="658.76086"
         id="tspan3103">           encodeFloat, isNaN,</tspan><tspan
         x="-44.316151"
         y="673.76086"
         id="tspan4525">           isInfinite, isDenormalized,</tspan><tspan
         x="-44.316151"
         y="688.76086"
         id="tspan4531">           isNegativeZero, isIEEE</tspan></text>
  </g>
</svg>
