<?xml version="1.0" encoding="UTF-8"?>
<svg width="97px" height="35px" viewBox="0 0 97 35" version="1.1" xmlns="http://www.w3.org/2000/svg" xmlns:xlink="http://www.w3.org/1999/xlink">
    <!-- Generator: Sketch 51.3 (57544) - http://www.bohemiancoding.com/sketch -->
    <title>Clients / Audience Republic</title>
    <desc>Created with Sketch.</desc>
    <defs>
        <linearGradient x1="0%" y1="0%" x2="102%" y2="101%" id="linearGradient-1">
            <stop stop-color="#3023AE" offset="0%"></stop>
            <stop stop-color="#C86DD7" offset="100%"></stop>
        </linearGradient>
    </defs>
    <g id="Clients-/-Audience-Republic" stroke="none" stroke-width="1" fill="none" fill-rule="evenodd">
        <g id="About-Audience-Republic-0" fill-rule="nonzero">
            <path d="M38.3635052,27.765 C37.7083814,26.96625 36.8464948,26.46225 35.9317938,26.25525 C34.3889381,25.9065 33.085433,24.8805 32.2875979,23.515875 L32.0830825,23.164875 C31.2740103,21.783375 31.0942165,20.13525 31.5257216,18.594 C31.9347526,17.127 31.5616804,15.489 30.4065052,14.335875 C29.8109381,13.741875 29.087268,13.354875 28.324268,13.174875 C26.7769175,12.810375 25.447567,11.822625 24.6463608,10.452375 L24.4384742,10.094625 C23.6316495,8.715375 23.4496082,7.070625 23.8766186,5.531625 C24.3114948,3.9735 23.8653814,2.22075 22.5315361,1.062 C20.8965361,-0.36 18.4097629,-0.351 16.7837526,1.08 C14.8734433,2.76075 14.8060206,5.673375 16.5781134,7.444125 C17.171433,8.035875 17.8928557,8.422875 18.654732,8.602875 C20.2009588,8.969625 21.5269381,9.95625 22.3270206,11.325375 L22.5427732,11.694375 C23.3495979,13.0725 23.5316392,14.716125 23.1046289,16.254 C22.7000928,17.71875 23.0709175,19.3545 24.2260928,20.5065 C24.8182887,21.097125 25.5408351,21.483 26.2993402,21.66525 C27.8421959,22.032 29.1648041,23.0175 29.9660103,24.3855 L30.1941237,24.775875 C30.9998247,26.15625 31.1807423,27.802125 30.7526082,29.343375 C30.3458247,30.808125 30.7188969,32.443875 31.8729485,33.595875 C33.6484124,35.36775 36.565567,35.298 38.2500103,33.388875 C39.6434124,31.804875 39.6939794,29.399625 38.3623814,27.763875 L38.3635052,27.765 Z M23.065299,27.76725 C22.4135464,26.9685 21.5561546,26.465625 20.6448247,26.2575 C19.0974742,25.905375 17.7905979,24.877125 16.9905155,23.509125 L16.8062268,23.19075 C15.9859175,21.790125 15.8151134,20.124 16.2376289,18.558 C16.6556495,17.008875 16.2039175,15.273 14.882433,14.12325 C13.247433,12.70125 10.7606598,12.709125 9.13464948,14.14125 C7.22434021,15.823125 7.1546701,18.73575 8.92676289,20.505375 C9.51109278,21.088125 10.2190309,21.472875 10.9640515,21.655125 C12.5305052,22.041 13.8800825,23.029875 14.6925258,24.420375 L14.8779381,24.73875 C15.6982474,26.141625 15.8690515,27.81 15.4465361,29.376 C15.0554845,30.832875 15.4308041,32.452875 16.5769897,33.597 C18.3502062,35.36775 21.2696082,35.298 22.9529278,33.388875 C24.3485773,31.804875 24.3991443,29.40075 23.065299,27.766125 L23.065299,27.76725 Z M8.7402268,30.51225 C8.7402268,32.91975 6.78496907,34.875 4.36898969,34.875 C1.95638144,34.875 0,32.920875 0,30.51 C0,28.1025 1.95525773,26.14725 4.37123711,26.14725 C6.78384536,26.14725 8.7402268,28.101375 8.7402268,30.51225 Z" id="Fill-1" fill="url(#linearGradient-1)"></path>
            <g id="Group-19" transform="translate(42.185567, 4.375000)" fill="#43516B">
                <g id="Group-10" transform="translate(7.000000, 12.625000)">
                    <path d="M38.8444536,1.60708696 C38.8444536,2.04730435 38.5017216,2.40534783 38.0803299,2.40534783 C37.6589381,2.40534783 37.3162062,2.04730435 37.3162062,1.60708696 C37.3162062,1.16569565 37.6589381,0.808826087 38.0803299,0.808826087 C38.5017216,0.808826087 38.8444536,1.16569565 38.8444536,1.60708696" id="Fill-9"></path>
                    <path d="M37.8213144,3.6356087 L38.3393454,3.6356087 C38.5382423,3.6356087 38.698933,3.80406522 38.698933,4.01126087 L38.698933,9.6971087 C38.698933,9.90606522 38.5382423,10.0745217 38.3393454,10.0745217 L37.8213144,10.0745217 C37.6218557,10.0745217 37.4606031,9.90606522 37.4606031,9.69769565 L37.4606031,4.01302174 C37.4606031,3.80523913 37.6218557,3.63736957 37.8213144,3.63736957" id="Fill-10"></path>
                    <path d="M34.88,0.0903913043 L35.3969072,0.0903913043 C35.5969278,0.0903913043 35.7581804,0.258847826 35.7581804,0.467217391 L35.7581804,9.69652174 C35.7581804,9.90547826 35.5969278,10.0739348 35.3974691,10.0739348 L34.8805619,10.0739348 C34.6811031,10.0739348 34.5198505,9.90547826 34.5198505,9.6971087 L34.5198505,0.467804348 C34.5198505,0.259434783 34.6811031,0.0909782609 34.8805619,0.0909782609" id="Fill-11"></path>
                    <path d="M13.516,6.87326087 C13.516,5.67997826 14.4419381,4.71208696 15.5847526,4.71208696 C16.7270052,4.71208696 17.6523814,5.68056522 17.6523814,6.87326087 C17.6523814,8.06713043 16.7270052,9.03443478 15.5847526,9.03443478 C14.4419381,9.03443478 13.516,8.06713043 13.516,6.87326087 Z M13.5879175,9.95302174 C13.5879175,9.70297826 13.858732,9.55741304 14.0542577,9.7023913 C14.5183505,10.0486957 15.1009948,10.2553043 15.6813918,10.2553043 C17.4725876,10.2553043 18.7850825,8.73273913 18.7850825,6.86152174 C18.7850825,4.99030435 17.4725876,3.46773913 15.6813918,3.46773913 C15.0335722,3.46773913 14.3835052,3.77002174 13.8975,4.17208696 C13.7401804,4.30297826 13.5070103,4.23782609 13.4367784,4.0406087 L13.3648608,3.84104348 C13.3221598,3.72071739 13.2120361,3.64147826 13.0895515,3.64147826 L12.5805103,3.64147826 C12.4535309,3.64147826 12.3501495,3.74947826 12.3501495,3.88213043 L12.3501495,13.2100435 C12.3501495,13.3432826 12.4535309,13.4518696 12.581634,13.4518696 L13.3569948,13.4518696 C13.4850979,13.4518696 13.5884794,13.3432826 13.5884794,13.2100435 L13.5884794,9.95243478 L13.5879175,9.95302174 Z" id="Fill-12"></path>
                    <path d="M30.1828866,4.68978261 C31.3262629,4.68978261 32.252201,5.65708696 32.252201,6.84978261 C32.252201,8.04423913 31.3262629,9.01154348 30.1834485,9.01154348 C29.0417577,9.01154348 28.1158196,8.04423913 28.1158196,6.85036957 C28.1158196,5.65767391 29.0417577,4.69036957 30.1834485,4.69036957 L30.1828866,4.68978261 Z M28.188299,0.514173913 C28.188299,0.380347826 28.0837938,0.272347826 27.9562526,0.272347826 L27.179768,0.272347826 C27.0522268,0.272347826 26.9482835,0.380347826 26.9482835,0.514173913 L26.9482835,9.84091304 C26.9482835,9.97473913 27.0522268,10.0827391 27.179768,10.0827391 L27.6882474,10.0827391 C27.810732,10.0827391 27.9208557,10.002913 27.9635567,9.88317391 L28.0354742,9.6836087 C28.106268,9.48580435 28.3388763,9.42065217 28.4961959,9.55095652 C28.9833247,9.9536087 29.6328299,10.2553043 30.2806495,10.2553043 C32.0718454,10.2553043 33.3843402,8.73332609 33.3843402,6.86269565 C33.3843402,4.99030435 32.0718454,3.46832609 30.2806495,3.46832609 C29.7002526,3.46832609 29.1176082,3.67376087 28.6523918,4.02006522 C28.4579897,4.16563043 28.1877371,4.02006522 28.1877371,3.77002174 L28.1877371,0.514173913 L28.188299,0.514173913 Z" id="Fill-14"></path>
                    <path d="M44.5944845,8.32891304 C44.1809588,8.7926087 43.5735928,9.06495652 42.907232,9.00743478 C41.8902732,8.9193913 41.0710876,8.0366087 41.0177113,6.97069565 C40.9559072,5.72458696 41.9037577,4.69330435 43.0830928,4.69330435 C43.6803454,4.69330435 44.2180412,4.9586087 44.5961701,5.38180435 C44.7186546,5.51856522 44.9181134,5.54321739 45.0658814,5.43697826 L45.4445722,5.16697826 C45.624366,5.03784783 45.6563918,4.77195652 45.5108711,4.60115217 C44.8647371,3.84104348 43.8966598,3.38615217 42.8296959,3.47008696 C41.2312165,3.59686957 39.9417577,4.96213043 39.8406237,6.63378261 C39.7215103,8.60771739 41.2188557,10.2476739 43.0825309,10.2476739 C44.0500464,10.2476739 44.9175515,9.80628261 45.5131186,9.10545652 C45.6575155,8.93523913 45.6238041,8.66993478 45.4445722,8.54197826 L45.0653196,8.27197826 C44.915866,8.16456522 44.7158454,8.18980435 44.5933608,8.32832609" id="Fill-16"></path>
                    <path d="M7.90530928,4.70152174 C8.9278866,4.70152174 9.77628866,5.47865217 9.94147423,6.4976087 L5.86802062,6.4976087 C6.03376804,5.47865217 6.88160825,4.70152174 7.90530928,4.70152174 Z M11.1539588,6.86152174 C11.1539588,4.91576087 9.58638144,3.35152174 7.69854639,3.47478261 C6.08040206,3.58043478 4.76341237,4.95508696 4.66284021,6.64434783 C4.54485052,8.61769565 6.04163402,10.2553043 7.90474742,10.2553043 C8.7846134,10.2553043 9.82629381,10.0880217 10.685933,9.1125 C10.8342629,8.94228261 10.802799,8.67345652 10.6207577,8.54315217 L10.2752165,8.29663043 C10.1274485,8.19097826 9.9291134,8.21445652 9.80662887,8.34945652 C9.23353608,8.97867391 8.59414433,9.01623913 7.90418557,9.0221087 C6.96701031,9.03091304 6.17647938,8.37176087 5.92195876,7.47841304 L10.7893144,7.47841304 C10.9898969,7.47841304 11.1528351,7.30819565 11.1528351,7.09923913 L11.1528351,6.8621087 L11.1539588,6.86152174 Z" id="Fill-19"></path>
                    <path d="M4.14649485,3.47243478 C4.09368041,3.4695 4.04086598,3.46773913 3.98917526,3.46773913 C3.25033505,3.46773913 2.56992784,3.726 2.02436598,4.15858696 C1.90356701,4.25426087 1.73051546,4.21963043 1.65915979,4.07934783 L1.53836082,3.8433913 C1.47543299,3.72013043 1.35182474,3.64265217 1.21810309,3.64265217 L0.920319588,3.64265217 C0.72142268,3.64265217 0.560731959,3.8111087 0.560731959,4.01830435 L0.560731959,9.6971087 C0.560731959,9.90606522 0.72142268,10.0745217 0.920319588,10.0745217 L1.43835052,10.0745217 C1.63780928,10.0745217 1.79906186,9.90606522 1.79906186,9.69769565 L1.79906186,6.73356522 C1.80074742,5.54204348 2.72612371,4.57591304 3.86669072,4.57591304 C3.94815979,4.57591304 4.0279433,4.58178261 4.10660309,4.59117391 C4.24819072,4.60878261 4.37236082,4.48963043 4.37236082,4.33995652 L4.37236082,3.72658696 C4.37236082,3.59276087 4.27291237,3.48006522 4.14537113,3.47419565" id="Fill-22"></path>
                    <path d="M25.3104742,3.64323913 L24.5103918,3.64323913 C24.3890309,3.64323913 24.291268,3.74595652 24.291268,3.87215217 L24.2890206,7.42030435 C24.2890206,8.22091304 23.7271649,8.88182609 22.9928196,9.00215217 L22.9338247,9.01154348 L22.8810103,9.01623913 C22.847299,9.02034783 22.8124639,9.0221087 22.777067,9.0221087 C22.769201,9.0221087 22.7618969,9.02386957 22.7545928,9.02386957 L22.7332423,9.02269565 C22.6967216,9.02269565 22.660201,9.02093478 22.6264897,9.01682609 C22.609634,9.01682609 22.5927784,9.01447826 22.5759227,9.01271739 C22.5478299,9.00919565 22.5214227,9.00508696 22.4938918,8.99980435 C21.7707835,8.87067391 21.2201649,8.21445652 21.2201649,7.42206522 L21.2212887,3.8745 C21.2212887,3.74771739 21.1229639,3.64558696 21.0021649,3.64558696 L20.2015206,3.64558696 C20.0930825,3.64558696 20.0031856,3.72776087 19.985768,3.83634783 L19.9840825,7.42265217 L19.9840825,7.42734783 C19.9840825,8.991 21.196567,10.2582391 22.6922268,10.2582391 L22.710768,10.2582391 L22.7354897,10.2570652 C23.2186856,10.2494348 23.5934433,10.1015217 23.8794278,9.85206522 C23.9356134,9.80686957 23.9895515,9.75815217 24.0389948,9.7023913 C24.1811443,9.54215217 24.4322938,9.58265217 24.521067,9.78045652 L24.5783763,9.90782609 C24.6272577,10.0158261 24.731201,10.083913 24.8452577,10.083913 L25.3093505,10.083913 C25.4307113,10.083913 25.5284742,9.98236957 25.5284742,9.855 L25.5284742,3.87391304 C25.5284742,3.74713043 25.4307113,3.645 25.3093505,3.645" id="Fill-24"></path>
                </g>
                <g id="Group-18">
                    <path d="M3.33128456,8.6473125 C2.1767497,8.6473125 1.24142312,7.7191875 1.24142312,6.5761875 C1.24142312,5.4331875 2.1767497,4.5061875 3.33128456,4.5061875 C4.48638732,4.5061875 5.42228179,5.4331875 5.42228179,6.5761875 C5.42228179,7.7203125 4.48638732,8.647875 3.33128456,8.647875 L3.33128456,8.6473125 Z M5.4591951,9.2975625 L5.52336748,9.4663125 C5.56709555,9.5810625 5.67840339,9.6575625 5.80163707,9.6575625 L6.31671976,9.6575625 C6.44563241,9.6575625 6.54955759,9.5535 6.54955759,9.4258125 L6.55069338,3.7209375 C6.55069338,3.5926875 6.44563241,3.4891875 6.31671976,3.4891875 L5.86069837,3.4891875 C5.74484736,3.4891875 5.63921849,3.5555625 5.59037934,3.6590625 L5.46941725,3.9155625 C5.38820796,4.0888125 5.16388859,4.1405625 5.01339585,4.0201875 C4.51932535,3.623625 3.84920674,3.3226875 3.18306341,3.3226875 C1.37260736,3.3226875 0.0459996674,4.782375 0.0459996674,6.575625 C0.0459996674,8.37 1.37260736,9.8285625 3.18306341,9.8285625 C3.83898459,9.8285625 4.49888106,9.5810625 4.99067997,9.1749375 C5.14798747,9.0455625 5.38820796,9.1074375 5.459763,9.2986875 L5.4591951,9.2975625 Z" id="Fill-6"></path>
                    <path d="M24.361651,1.540125 C24.361651,1.962 24.0152338,2.305125 23.5893109,2.305125 C23.1633881,2.305125 22.8169708,1.962 22.8169708,1.540125 C22.8169708,1.117125 23.1633881,0.775125 23.5893109,0.775125 C24.0152338,0.775125 24.361651,1.117125 24.361651,1.540125" id="Fill-7"></path>
                    <path d="M23.3275104,3.484125 L23.8499757,3.484125 C24.0521471,3.484125 24.2157015,3.6455625 24.2157015,3.844125 L24.2157015,9.2930625 C24.2157015,9.4933125 24.052715,9.65475 23.8511115,9.65475 L23.3286462,9.65475 C23.1264748,9.65475 22.9634883,9.4933125 22.9634883,9.293625 L22.9634883,3.8458125 C22.9634883,3.6466875 23.1264748,3.4858125 23.3280783,3.4858125" id="Fill-8"></path>
                    <path d="M20.0638056,6.564375 C20.0638056,7.7090625 19.1267753,8.6360625 17.9722404,8.6360625 C16.8177056,8.6360625 15.882379,7.7090625 15.882379,6.5649375 C15.882379,5.4219375 16.8177056,4.4949375 17.9722404,4.4949375 C19.1273432,4.4949375 20.0632377,5.4219375 20.0632377,6.5649375 L20.0638056,6.564375 Z M19.9899789,3.6135 C19.9899789,3.853125 19.7173883,3.992625 19.5197601,3.8536875 C19.0501092,3.5218125 18.460632,3.3249375 17.8745621,3.3249375 C16.0629703,3.3249375 14.7374984,4.7835 14.7374984,6.5761875 C14.7374984,8.3705625 16.0641061,9.829125 17.87513,9.829125 C18.5299154,9.829125 19.1858366,9.5394375 19.6782034,9.154125 C19.8372146,9.0286875 20.0728919,9.091125 20.1438791,9.280125 L20.216002,9.471375 C20.2597301,9.5866875 20.3710379,9.662625 20.4954074,9.662625 L21.0087864,9.662625 C21.137699,9.662625 21.2416242,9.5596875 21.2416242,9.432 L21.2416242,0.49275 C21.2416242,0.363375 21.137699,0.2604375 21.0087864,0.2604375 L20.2228168,0.2604375 C20.0933362,0.2604375 19.9888431,0.3639375 19.9888431,0.4921875 L19.9888431,3.6129375 L19.9899789,3.6135 Z" id="Fill-13"></path>
                    <path d="M44.6389859,7.988625 C44.2204457,8.433 43.6076847,8.6945625 42.9341587,8.6394375 C41.9051291,8.5550625 41.0782709,7.7085 41.0243207,6.6875625 C40.9601483,5.4928125 41.9193266,4.5050625 43.1107747,4.5050625 C43.7150173,4.5050625 44.2579269,4.7581875 44.6401217,5.1643125 C44.7639233,5.2959375 44.9655268,5.319 45.1154516,5.21775 L45.4976464,4.959 C45.6805093,4.83525 45.7134473,4.579875 45.565794,4.4161875 C44.9127123,3.68775 43.9342256,3.2518125 42.855221,3.3328125 C41.2395537,3.45375 39.9362298,4.7626875 39.8340083,6.3646875 C39.7136141,8.256375 41.22706,9.828 43.1107747,9.828 C44.0886936,9.828 44.9660947,9.4044375 45.5674977,8.733375 C45.7134473,8.57025 45.6793735,8.316 45.4982143,8.193375 L45.1154516,7.9335 C44.9649589,7.83225 44.7633554,7.855875 44.638418,7.9880625" id="Fill-18"></path>
                    <path d="M49.5160865,4.505625 C50.550795,4.505625 51.4071839,5.250375 51.5747136,6.228 L47.4574594,6.228 C47.6255569,5.250375 48.4819458,4.505625 49.5160865,4.505625 Z M52.7996677,6.575625 C52.7996677,4.7115 51.2152347,3.213 49.3071003,3.33 C47.6715566,3.43125 46.3409736,4.7491875 46.23932,6.368625 C46.1200616,8.258625 47.6335075,9.828 49.5160865,9.828 C50.4059813,9.828 51.4582946,9.66825 52.3271773,8.7328125 C52.47767,8.5696875 52.4464357,8.3120625 52.2618691,8.1871875 L51.9126123,7.9509375 C51.7638233,7.8496875 51.5633556,7.8721875 51.439554,8.0015625 C50.8591632,8.6045625 50.2128962,8.641125 49.5155186,8.64675 C48.5688341,8.654625 47.7698028,8.022375 47.5131133,7.167375 L52.4322382,7.167375 C52.6349775,7.167375 52.7990998,7.00425 52.7990998,6.8034375 L52.7990998,6.5761875 L52.7996677,6.575625 Z" id="Fill-20"></path>
                    <path d="M28.645867,4.505625 C29.6805755,4.505625 30.5369644,5.250375 30.7044941,6.228 L26.5872399,6.228 C26.7547695,5.250375 27.6117263,4.505625 28.645867,4.505625 Z M31.9294482,6.575625 C31.9294482,4.7115 30.3450152,3.213 28.4368808,3.33 C26.8013371,3.43125 25.4701862,4.7491875 25.3691005,6.368625 C25.2498421,8.258625 26.763288,9.828 28.645867,9.828 C29.5357618,9.828 30.5880752,9.66825 31.4569578,8.7328125 C31.6068826,8.5696875 31.5762162,8.3120625 31.3916496,8.1871875 L31.0423929,7.9509375 C30.8936038,7.8496875 30.6931361,7.8721875 30.5687667,8.0015625 C29.9895116,8.6045625 29.3438125,8.641125 28.645867,8.64675 C27.6991825,8.654625 26.8995833,8.022375 26.6428938,7.167375 L31.5625866,7.167375 C31.764758,7.167375 31.9294482,7.00425 31.9294482,6.8034375 L31.9294482,6.5761875 L31.9294482,6.575625 Z" id="Fill-21"></path>
                    <path d="M13.3665947,3.4914375 L12.5584771,3.4914375 C12.4358113,3.4914375 12.3369972,3.589875 12.3369972,3.7108125 L12.3347256,7.111125 C12.3347256,7.878375 11.7668285,8.51175 11.024587,8.6270625 L10.9649578,8.6360625 L10.9115754,8.6405625 C10.8775016,8.6445 10.842292,8.6461875 10.8065145,8.6461875 C10.797996,8.6461875 10.7906133,8.647875 10.7837986,8.647875 L10.7622185,8.64675 C10.7253052,8.64675 10.6883919,8.6450625 10.654318,8.641125 C10.6372811,8.641125 10.6202442,8.638875 10.6032073,8.6371875 C10.5748124,8.6338125 10.5475534,8.629875 10.5202943,8.6248125 C9.78941071,8.5010625 9.23230362,7.8721875 9.23230362,7.1128125 L9.23457521,3.7130625 C9.23457521,3.5915625 9.13519322,3.4936875 9.01309533,3.4936875 L8.20384192,3.4936875 C8.09366988,3.4936875 8.00337424,3.5724375 7.98576943,3.6765 L7.98349784,7.113375 L7.98349784,7.117875 C7.98349784,8.616375 9.20901984,9.8308125 10.720762,9.8308125 L10.7395026,9.8308125 L10.7639222,9.8296875 C11.2523137,9.822375 11.631669,9.680625 11.9207286,9.4415625 C11.9775183,9.39825 12.0320365,9.3515625 12.0814435,9.298125 C12.2251215,9.1445625 12.4789715,9.183375 12.5698351,9.3729375 L12.6266248,9.495 C12.6765997,9.5985 12.7816607,9.66375 12.8969438,9.66375 L13.3660268,9.66375 C13.4881247,9.66375 13.5875067,9.5664375 13.5875067,9.444375 L13.5875067,3.7125 C13.5875067,3.591 13.4881247,3.493125 13.3660268,3.493125" id="Fill-23"></path>
                    <path d="M33.2986482,9.6609375 L34.1073337,9.6609375 C34.2288637,9.6609375 34.3288135,9.5625 34.3288135,9.4415625 L34.3305172,6.04125 C34.3305172,5.274 34.8984144,4.640625 35.640088,4.5253125 C35.6593965,4.5219375 35.6798408,4.5185625 35.6991493,4.5163125 C35.717322,4.5135 35.7349268,4.512375 35.7525316,4.5106875 C35.7866055,4.507875 35.822383,4.5061875 35.8581605,4.5050625 L35.9013207,4.5050625 C35.938234,4.5061875 35.9751473,4.507875 36.0103569,4.5106875 C36.0273939,4.512375 36.043295,4.5135 36.059764,4.5163125 C36.0881589,4.519125 36.1154179,4.5230625 36.142677,4.5275625 C36.8735606,4.6513125 37.4306677,5.2813125 37.4306677,6.0406875 L37.428964,9.4404375 C37.428964,9.5619375 37.5289139,9.6598125 37.6504439,9.6598125 L38.4596973,9.6598125 C38.5698693,9.6598125 38.6601649,9.5810625 38.6777698,9.477 L38.6794735,6.040125 L38.6794735,6.0345 C38.6794735,4.537125 37.4528157,3.32325 35.9410735,3.32325 L35.9007528,3.32325 C35.4123613,3.3316875 35.0335739,3.4734375 34.7439463,3.711375 C34.6871566,3.756375 34.6320706,3.8030625 34.5826636,3.8559375 C34.4389856,4.0095 34.1851356,3.9706875 34.094272,3.781125 L34.0374823,3.6590625 C33.9875074,3.5555625 33.8824464,3.4903125 33.7671633,3.4903125 L33.2980803,3.4903125 C33.1759824,3.4903125 33.0766004,3.587625 33.0766004,3.7096875 L33.0766004,9.439875 C33.0766004,9.561375 33.1759824,9.65925 33.2980803,9.65925" id="Fill-25"></path>
                </g>
            </g>
        </g>
    </g>
</svg>