<?xml version="1.0" encoding="utf-8"?>
<!-- Generator: Adobe Illustrator 21.1.0, SVG Export Plug-In . SVG Version: 6.00 Build 0)  -->
<svg version="1.1" id="Layer_1" xmlns="http://www.w3.org/2000/svg" xmlns:xlink="http://www.w3.org/1999/xlink" x="0px" y="0px"
	 viewBox="0 0 190.3 190.3" style="enable-background:new 0 0 190.3 190.3;" xml:space="preserve">
<style type="text/css">
	.st0{fill:#FFFFFF;}
</style>
<g>
	<path class="st0" d="M123.2,78.5l22.4-25.7l-9.7-8.4L97.2,89V58.9h-16v36.8c0,6.8-3.2,10.7-10,10.7s-10-3.9-10-10.7V58.9h-15v36.9
		c0,15.8,10.1,23.7,24.6,24l-18.1,20.7l9.6,8.4l44.9-52v34.9h42v-13h-26V78.5z"/>
	<path class="st0" d="M95.1,0C42.6,0,0,42.6,0,95.1s42.6,95.1,95.1,95.1s95.1-42.6,95.1-95.1C190.3,42.6,147.7,0,95.1,0z
		 M95.1,180.3c-48.2,0-85.2-37.1-85.2-85.2C9.9,47,47,9.9,95.1,9.9c48.2,0,85.2,37.1,85.2,85.2C180.3,143.3,143.3,180.3,95.1,180.3z
		"/>
</g>
</svg>
